<?xml version="1.0" encoding="UTF-8" standalone="no"?>
<!-- Created with Inkscape (http://www.inkscape.org/) -->

<svg
   width="35.90995mm"
   height="35.90995mm"
   viewBox="0 0 35.909951 35.909951"
   version="1.1"
   id="svg5"
   xml:space="preserve"
   inkscape:version="1.2.2 (b0a8486541, 2022-12-01)"
   sodipodi:docname="Logo.svg"
   xmlns:inkscape="http://www.inkscape.org/namespaces/inkscape"
   xmlns:sodipodi="http://sodipodi.sourceforge.net/DTD/sodipodi-0.dtd"
   xmlns="http://www.w3.org/2000/svg"
   xmlns:svg="http://www.w3.org/2000/svg"><sodipodi:namedview
     id="namedview7"
     pagecolor="#ffffff"
     bordercolor="#000000"
     borderopacity="0.25"
     inkscape:showpageshadow="2"
     inkscape:pageopacity="0.0"
     inkscape:pagecheckerboard="0"
     inkscape:deskcolor="#d1d1d1"
     inkscape:document-units="mm"
     showgrid="false"
     inkscape:zoom="0.69664703"
     inkscape:cx="244.74374"
     inkscape:cy="376.08716"
     inkscape:window-width="1920"
     inkscape:window-height="1043"
     inkscape:window-x="0"
     inkscape:window-y="0"
     inkscape:window-maximized="1"
     inkscape:current-layer="layer1" /><defs
     id="defs2" /><g
     inkscape:label="Layer 1"
     inkscape:groupmode="layer"
     id="layer1"
     transform="translate(-40.318951,-48.98782)"><circle
       style="fill:#ffffff;stroke-width:0.222524"
       id="path642"
       cx="58.273926"
       cy="66.942795"
       r="17.954975" /><g
       id="g718"
       transform="translate(0.80791428,-0.89667269)"><g
         id="g182"
         transform="matrix(0.26458333,0,0,0.26458333,19.351459,-37.863593)">
	<g
   id="g152">
		<path
   class="st0"
   d="m 97.66,407.71 c -1.27,0 -2.36,-0.96 -2.48,-2.25 -0.16,-1.64 -0.24,-3.3 -0.24,-4.95 0,-18.03 9.81,-34.67 25.59,-43.43 1.21,-0.67 2.73,-0.23 3.4,0.97 0.67,1.21 0.23,2.73 -0.97,3.4 -14.2,7.87 -23.02,22.84 -23.02,39.06 0,1.49 0.07,2.99 0.22,4.46 0.14,1.37 -0.87,2.6 -2.24,2.73 -0.09,0.01 -0.17,0.01 -0.26,0.01 z"
   id="path150" />
	</g>
	<g
   id="g156">
		<path
   class="st1"
   d="m 143.54,452.13 c -13.45,0 -26.18,-5.14 -35.85,-14.48 -1.79,-1.73 -1.84,-4.57 -0.11,-6.36 1.73,-1.79 4.58,-1.84 6.36,-0.11 7.99,7.71 18.5,11.95 29.6,11.95 23.5,0 42.63,-19.12 42.63,-42.63 0,-19.87 -13.48,-36.93 -32.78,-41.49 -2.42,-0.57 -3.92,-3 -3.34,-5.41 0.57,-2.42 3,-3.92 5.41,-3.34 23.38,5.52 39.71,26.19 39.71,50.25 0,28.46 -23.16,51.62 -51.63,51.62 z"
   id="path154" />
	</g>
	<g
   id="g160">
		<path
   class="st2"
   d="m 180.17,353.67 c -0.9,0 -1.8,-0.27 -2.59,-0.83 -5.88,-4.15 -12.38,-7.14 -19.33,-8.89 -2.41,-0.6 -3.88,-3.05 -3.27,-5.46 0.6,-2.41 3.05,-3.87 5.46,-3.27 8.04,2.01 15.55,5.47 22.34,10.27 2.03,1.43 2.51,4.24 1.08,6.27 -0.89,1.25 -2.28,1.91 -3.69,1.91 z"
   id="path158" />
	</g>
	<g
   id="g164">
		<path
   class="st3"
   d="m 102.91,356.12 c -0.84,0 -1.67,-0.35 -2.26,-1.03 -1.09,-1.25 -0.96,-3.14 0.29,-4.23 9.91,-8.64 22.02,-14.05 35.02,-15.65 1.64,-0.21 3.14,0.97 3.34,2.61 0.2,1.64 -0.97,3.14 -2.61,3.34 -11.81,1.45 -22.81,6.37 -31.81,14.22 -0.56,0.5 -1.27,0.74 -1.97,0.74 z"
   id="path162" />
	</g>
	<g
   id="g168">
		<path
   class="st4"
   d="m 100.92,450.29 c -1.11,0 -2.23,-0.41 -3.1,-1.24 -13.48,-12.81 -20.91,-30.1 -20.91,-48.69 0,-11.54 2.98,-22.92 8.61,-32.92 1.22,-2.17 3.97,-2.93 6.13,-1.71 2.17,1.22 2.93,3.96 1.71,6.13 -4.88,8.65 -7.45,18.51 -7.45,28.5 0,16.1 6.43,31.07 18.11,42.17 1.8,1.71 1.88,4.56 0.16,6.36 -0.88,0.93 -2.07,1.4 -3.26,1.4 z"
   id="path166" />
	</g>
	<g
   id="g172">
		<path
   class="st5"
   d="m 130.01,463.93 c -0.19,0 -0.37,-0.02 -0.56,-0.06 -6.31,-1.44 -12.35,-3.82 -17.96,-7.07 -1.2,-0.69 -1.6,-2.22 -0.91,-3.42 0.69,-1.2 2.22,-1.6 3.42,-0.91 5.18,2.99 10.75,5.19 16.57,6.52 1.35,0.31 2.19,1.65 1.88,3 -0.27,1.15 -1.3,1.94 -2.44,1.94 z"
   id="path170" />
	</g>
	<g
   id="g176">
		<path
   class="st6"
   d="m 186.14,450.27 c -0.95,0 -1.9,-0.39 -2.59,-1.15 -1.3,-1.43 -1.19,-3.65 0.24,-4.94 5.6,-5.09 10.12,-11.1 13.44,-17.87 0.85,-1.74 2.95,-2.46 4.68,-1.61 1.74,0.85 2.46,2.95 1.61,4.68 -3.7,7.57 -8.76,14.3 -15.02,19.98 -0.67,0.61 -1.52,0.91 -2.36,0.91 z"
   id="path174" />
	</g>
	<g
   id="g180">
		<path
   class="st7"
   d="m 206.21,412.8 c -0.19,0 -0.38,-0.01 -0.57,-0.04 -2.47,-0.31 -4.21,-2.56 -3.9,-5.03 0.31,-2.43 0.46,-4.91 0.46,-7.37 0,-12.9 -4.14,-25.12 -11.96,-35.33 -1.51,-1.97 -1.14,-4.8 0.83,-6.31 1.97,-1.51 4.8,-1.14 6.31,0.83 9.04,11.8 13.82,25.91 13.82,40.81 0,2.83 -0.18,5.69 -0.53,8.5 -0.29,2.28 -2.22,3.94 -4.46,3.94 z"
   id="path178" />
	</g>
</g><g
         id="g192"
         transform="matrix(0.26458333,0,0,0.26458333,19.351459,-37.863593)"
         style="fill:#000000">
	<g
   id="g190"
   style="fill:#000000">
		<path
   d="m 114.47,415.67 c 0,0.01 0,0.02 0,0.04 v -0.1 c 0,0.02 0,0.04 0,0.06 z"
   id="path184"
   style="fill:#000000" />
		<path
   d="m 114.47,415.67 c 0,0.01 0,0.02 0,0.04 v -0.1 c 0,0.02 0,0.04 0,0.06 z"
   id="path186"
   style="fill:#000000" />
		<path
   d="m 167.13,382.24 c 0,-0.03 -0.01,-0.05 -0.01,-0.08 0,-0.01 0,-0.01 -0.01,-0.02 -0.04,-0.15 -0.12,-0.27 -0.23,-0.37 -0.08,-0.04 -0.15,-0.08 -0.23,-0.12 -0.09,-0.05 -0.19,-0.1 -0.28,-0.15 l -1.79,-1.14 c -0.43,-0.26 -0.86,-0.53 -1.29,-0.79 h -0.48 c -0.04,0.01 -0.09,0.02 -0.14,0.02 -0.05,0 -0.09,-0.01 -0.14,-0.02 -0.14,-0.04 -0.25,-0.13 -0.31,-0.25 -0.02,-0.04 -0.04,-0.08 -0.05,-0.13 v 0 c 0,-0.02 0,-0.04 0,-0.07 L 162,378.51 v 0 c 0,-0.03 -0.01,-0.07 -0.01,-0.1 0,-0.17 0.08,-0.32 0.22,-0.41 0,0 0,0 0,0 0.04,-0.02 0.08,-0.04 0.12,-0.05 l 0.2,-0.1 0.25,-0.12 c 0,0 0,0 0,0 0.23,-0.15 0.39,-0.42 0.39,-0.73 0,-0.19 -0.07,-0.37 -0.17,-0.52 l -0.28,-0.25 c 0,0 -0.01,0 -0.01,0 l -4.55,-4.06 c 0,0 0,0 0,-0.01 0,0 -0.01,0 -0.01,-0.01 l -0.08,-0.07 c -0.02,-0.02 -0.04,-0.04 -0.07,-0.05 -0.16,-0.12 -0.36,-0.21 -0.58,-0.21 -0.02,-0.01 -0.04,-0.01 -0.06,-0.01 -0.04,0 -0.07,0 -0.1,0 0,0 -0.01,0 -0.01,0 -0.03,0 -0.06,0.01 -0.09,0.02 -0.01,0 -0.01,0 -0.01,0 -0.09,0.04 -0.17,0.06 -0.27,0.08 -0.07,0.03 -0.13,0.07 -0.19,0.11 l -0.08,0.08 c 0,0.01 -0.01,0.01 -0.02,0.02 l -0.05,0.05 -2.99,-2.43 c -0.04,-0.04 -0.09,-0.08 -0.15,-0.12 -0.18,-0.14 -0.4,-0.23 -0.65,-0.23 -0.03,-0.01 -0.04,-0.01 -0.07,-0.01 -0.04,0 -0.08,0 -0.11,0.01 0,0 -0.01,0 -0.01,0 l -0.12,0.02 -2.86,0.38 -2.47,0.86 c 0,0 0,0 -0.01,0 0,0 0,0 0,0 l -0.04,0.01 v 0 l -0.07,0.02 c 0,0 -0.01,0 -0.02,0 -0.01,0 -0.02,0 -0.02,0 -0.02,0 -0.04,0 -0.05,-0.01 -0.05,0 -0.1,-0.02 -0.15,-0.04 v 0 c -0.01,-0.01 -0.02,-0.02 -0.04,-0.02 0,0 0,0 0,0 0,0 0,0 -0.01,-0.01 l -0.09,-0.09 c 0,0 -0.01,-0.01 -0.01,-0.02 v 0 l -0.74,-0.8 c 0,0 0,0 -0.01,-0.01 -0.01,-0.01 -0.03,-0.03 -0.05,-0.04 -0.06,-0.05 -0.14,-0.08 -0.22,-0.08 -0.01,0 -0.01,0 -0.02,0 -0.03,0 -0.05,0 -0.08,0.01 0,0 0,0 0,0 -0.04,0.01 -0.07,0.02 -0.1,0.03 -0.99,0.3 -1.97,0.6 -2.96,0.9 0,0 0,0 0,0 0,0 0,0 -0.01,0 -0.01,0 -0.03,0.01 -0.07,0.02 -0.03,0.01 -0.08,0.03 -0.13,0.04 l -0.31,0.1 c -0.34,0.1 -0.84,0.26 -1.5,0.46 -0.29,-0.62 -0.87,-1.54 -1.27,-2.28 -0.01,-0.03 -0.03,-0.06 -0.04,-0.08 -0.02,-0.03 -0.04,-0.06 -0.07,-0.09 -0.12,-0.13 -0.29,-0.22 -0.48,-0.22 h -0.01 c -0.03,0 -0.06,0 -0.08,0.01 -0.03,0 -0.05,0 -0.07,0.01 l -1.56,0.3 c -0.07,0.03 -0.15,0.05 -0.23,0.05 h -0.01 c -0.19,0 -0.37,-0.08 -0.5,-0.22 0,0 0,0 0,0 -0.01,-0.02 -0.03,-0.04 -0.04,-0.06 -0.02,-0.03 -0.04,-0.06 -0.06,-0.09 l -1.74,-2.91 -0.13,-0.22 c -0.12,-0.13 -0.29,-0.22 -0.48,-0.22 l -0.24,0.04 -6.7,1.24 h -0.01 l -0.22,0.04 c 0,0 0,0 -0.01,0 -0.18,0.07 -0.32,0.2 -0.39,0.38 l -0.04,0.18 -0.62,2.65 -1.72,0.12 c -0.04,0 -0.08,0 -0.11,0.01 -0.43,0.05 -0.77,0.42 -0.77,0.87 0,0.14 0.03,0.27 0.09,0.39 0.02,0.04 0.04,0.08 0.08,0.12 l 3.17,5.37 h 1.94 l 1.91,3.03 c -1.89,1.62 -3.78,3.23 -5.66,4.85 -0.18,0.16 -0.37,0.31 -0.55,0.47 -0.02,0.01 -0.04,0.03 -0.06,0.04 -0.33,0.29 -0.54,0.71 -0.54,1.19 0,0.43 0.18,0.83 0.46,1.11 0.04,0.04 0.08,0.08 0.12,0.11 l 1.41,1.36 3.13,2.49 0.17,0.14 c 0,0 0,0 0,0 0.25,0.17 0.55,0.27 0.88,0.27 0.52,0 0.98,-0.25 1.27,-0.64 0.03,-0.05 0.06,-0.1 0.1,-0.15 0.01,-0.01 0.02,-0.03 0.03,-0.04 0.16,-0.23 0.32,-0.47 0.48,-0.71 0.6,-0.89 1.21,-1.79 1.81,-2.68 l 1.84,-0.46 0.74,2.87 -0.86,0.46 c 0.19,1.05 0.38,2.11 0.56,3.16 0.1,0.55 0.2,1.11 0.3,1.66 -0.17,1.06 -0.34,2.12 -0.51,3.17 v 0 c -0.3,1.61 -0.45,2.41 -0.45,2.41 0,0 -0.51,0.72 -1.45,2.05 -0.94,0.14 -1.88,0.27 -2.82,0.4 l -8.4,4.94 -0.27,-0.63 -5.62,1.97 c -0.35,0.14 -0.58,0.48 -0.58,0.85 v 0.5 l -3.28,1.59 -0.31,0.15 c -0.18,0.13 -0.31,0.32 -0.35,0.54 0,0 0,0.01 0,0.01 l -0.02,0.21 -0.27,3.82 -0.03,0.32 c 0,0 0,0 0,0.01 0.05,0.45 0.44,0.81 0.9,0.81 0.03,0 0.06,0 0.09,0 0.03,0 0.06,-0.01 0.09,-0.01 l 0.63,-0.1 -0.8,0.65 c 0,0 -0.01,0 -0.01,0.01 -0.15,0.12 -0.26,0.28 -0.31,0.48 -0.02,0.07 -0.03,0.15 -0.03,0.23 0,0.03 0,0.06 0,0.09 0,0 0,0 0,0.01 0.04,0.28 0.19,0.53 0.42,0.67 l 3.89,2.58 2.34,2.64 c 0.02,0.03 0.05,0.06 0.08,0.08 0.05,0.04 0.1,0.08 0.15,0.12 0.14,0.09 0.31,0.14 0.48,0.14 0.03,0 0.05,0 0.08,0 h 0.02 c 0.03,0 0.06,-0.01 0.09,-0.01 0,0 0.01,0 0.02,0 l 6.17,-0.95 c 0.12,-0.16 0.25,-0.32 0.38,-0.47 0,0 0,-0.01 0.01,-0.01 0.08,-0.11 0.7,-0.9 1.82,-2.32 0.77,0.04 1.55,0.08 2.33,0.12 0,0 0.01,0.09 0.01,0.1 0.01,0.11 0.08,0.59 0.12,0.92 0,0.04 0.01,0.07 0.01,0.1 0,0 0,0 0,0.01 v 0 c 0,0 0,0.01 0,0.02 0,0.01 0.01,0.02 0.02,0.03 0,0.02 0.01,0.03 0.02,0.04 0,0 0,0.01 0.01,0.01 0.01,0.01 0.02,0.02 0.03,0.03 0.02,0.02 0.04,0.03 0.06,0.04 0.04,0.03 0.1,0.04 0.15,0.05 0,0 0,0 0.01,0 l 0.88,0.13 c 0.64,1.29 1.29,2.58 1.93,3.86 0.06,0.12 0.12,0.25 0.19,0.38 0.02,0.03 0.04,0.04 0.06,0.07 0.05,0.04 0.1,0.08 0.15,0.12 0.14,0.09 0.31,0.14 0.48,0.14 0.03,0 0.05,0 0.08,0 h 0.02 l 0.28,-0.08 2.61,-0.69 2.87,0.25 c 0,0 0,0 0.01,0 l 0.18,0.02 h 0.03 c 0.46,-0.01 0.83,-0.36 0.88,-0.81 v -0.19 l -0.05,-0.19 -0.02,-0.08 1.77,3.98 v 0 c 0,0 0,0 0,0.01 v 0.01 l 0.02,0.05 c 0,0.02 0.01,0.03 0.02,0.04 0,0 0,0.01 0.01,0.01 0.01,0.01 0.02,0.02 0.03,0.03 0.02,0.02 0.04,0.03 0.06,0.04 0.04,0.03 0.1,0.04 0.15,0.05 0,0 0,0 0.01,0 h 0.01 c 0.01,0 0.02,0 0.03,0 v 0 c 0.01,0 0.02,0 0.03,0 0,0 0.01,0 0.01,0 0,0 0.01,0 0.02,0 v 0 l 1.72,-0.36 v 0 l 0.08,-0.01 c 0,0 0.01,0 0.02,0 0,0 0,0 0.01,0 h 0.02 c 0.02,0 0.04,0 0.06,0.01 0.08,0.02 0.14,0.07 0.19,0.12 l 1.43,1.8 0.03,0.04 c 0.17,0.19 0.42,0.31 0.68,0.31 h 7.99 c 0,0 0,0 0.01,0 h 0.02 c 0.01,0 0.01,0 0.02,0 v 0 c 0.01,0 0.02,0 0.03,0 0,0 0.01,0 0.01,0 0,0 0.01,0 0.02,0 0.02,0 0.04,-0.01 0.05,-0.02 0,0 0,0 0,0 0.04,-0.02 0.09,-0.06 0.12,-0.1 1.29,-1.64 2.58,-3.28 3.86,-4.92 l 6.7,-1.54 c 0.01,0 0.02,0 0.03,0 0.01,0 0.02,0 0.02,0 0.01,0 0.03,-0.01 0.04,-0.01 0,0 0,0 0.01,0 0.03,-0.01 0.06,-0.02 0.08,-0.03 0.01,0 0.01,-0.01 0.01,-0.01 0.08,-0.04 0.17,-0.11 0.23,-0.19 0.06,-0.08 0.1,-0.17 0.12,-0.28 0,0 0,-0.01 0,-0.02 0.01,-0.02 0.01,-0.05 0.01,-0.08 v -9.57 c 0,-0.02 0,-0.04 -0.01,-0.06 -0.02,-0.25 -0.19,-0.45 -0.43,-0.52 l -0.09,-0.02 -2.51,-0.52 -1.47,-2.84 c -0.01,-0.03 -0.03,-0.06 -0.05,-0.09 -0.07,-0.12 -0.19,-0.21 -0.34,-0.26 -0.01,0 -0.04,-0.01 -0.05,-0.01 -0.01,0 -0.03,0 -0.04,0 -0.03,-0.01 -0.05,-0.01 -0.08,-0.01 -0.04,0 -0.08,0 -0.12,0.01 l -1.3,0.38 c -0.01,0.01 -0.03,0.01 -0.04,0.02 -0.06,0.04 -0.14,0.06 -0.21,0.06 -0.01,0 -0.03,0 -0.05,0 h -0.01 c -0.18,0 -0.33,-0.08 -0.44,-0.19 -0.03,-0.03 -0.05,-0.06 -0.08,-0.1 l -0.08,-0.19 c 0,0 0,0 0,0 0,-0.01 0,-0.03 0,-0.04 l -1.6,-3.34 0.06,-0.85 2.75,-0.57 h 0.02 c 0.01,0 0.02,0 0.03,0 l 0.15,-0.04 c 0.03,0 0.04,-0.01 0.07,-0.03 0.01,-0.01 0.03,-0.01 0.04,-0.02 0.14,-0.08 0.24,-0.22 0.27,-0.39 0,-0.02 0.01,-0.04 0.01,-0.06 0,0 0,0 0,-0.01 -0.01,-0.08 -0.02,-0.18 -0.03,-0.26 -0.08,-0.77 -0.15,-1.54 -0.23,-2.31 -0.11,-1.08 -0.21,-2.16 -0.32,-3.25 v 0 c 0,-0.11 -0.08,-0.2 -0.18,-0.23 0,0 -0.01,-0.01 -0.02,-0.01 0,0 0,0 0,0 l -1.4,-0.47 v 0 c -0.05,0 -0.1,-0.02 -0.13,-0.04 -0.07,-0.04 -0.11,-0.12 -0.11,-0.2 0,-0.08 0.04,-0.15 0.09,-0.19 l 0.2,-0.05 c 0,0 0,0 0,0 l 1.18,-0.29 c 0,0 0.05,-0.02 0.05,-0.02 0.35,-0.11 0.59,-0.43 0.59,-0.81 0,-0.09 -0.01,-0.17 -0.04,-0.25 0,0 -0.02,-0.06 -0.02,-0.06 l -1.61,-4.27 2.56,-2.02 0.22,-0.18 0.07,-0.07 c 0.02,-0.03 0.04,-0.06 0.05,-0.09 0.04,-0.08 0.06,-0.16 0.07,-0.24 0,0 0,-0.01 0,-0.02 0,-0.01 0,-0.03 0,-0.04 0,-0.03 0,-0.06 0,-0.08 0,-0.03 -0.01,-0.05 -0.01,-0.08 0,-0.01 0,-0.01 -0.01,-0.02 -0.03,-0.11 -0.08,-0.21 -0.15,-0.29 -0.03,-0.03 -0.05,-0.05 -0.08,-0.08 -0.96,-0.87 -1.93,-1.74 -2.89,-2.61 l -0.23,-0.21 -0.48,-0.44 c -0.02,-0.01 -0.04,-0.03 -0.05,-0.04 -0.01,-0.01 -0.02,-0.02 -0.03,-0.03 -0.03,-0.03 -0.05,-0.07 -0.07,-0.11 -0.01,-0.01 -0.02,-0.02 -0.02,-0.03 -0.02,-0.02 -0.03,-0.04 -0.04,-0.06 -0.01,-0.02 -0.01,-0.05 -0.02,-0.07 0,0 0,-0.01 0,-0.02 0,0 0,0 0,-0.01 0,0 0,-0.01 0,-0.02 0,-0.01 0,-0.03 0,-0.04 0,-0.01 0,-0.03 0,-0.04 0,-0.04 0,-0.07 0,-0.1 0.01,-0.07 0.04,-0.14 0.08,-0.19 0,0 0,0 0,0 0.03,-0.05 0.07,-0.1 0.12,-0.13 0,0 0,-0.01 0.01,-0.01 l 0.09,-0.05 0.03,-0.01 v 0 c 0.03,-0.02 0.06,-0.03 0.09,-0.04 0.03,0 0.07,-0.01 0.1,-0.01 0,0 0,0 0.01,0 0.04,0 0.06,0 0.09,0.01 0.03,0.01 0.05,0.01 0.08,0.02 0,0 0.01,0.01 0.01,0.01 0,0 0,0 0.01,0 0.04,0.01 0.07,0.03 0.1,0.04 0,0 0.01,0.01 0.02,0.01 0,0 0.01,0.01 0.02,0.02 0,0 0.01,0 0.01,0.01 0.05,0.02 0.12,0.05 0.2,0.1 0.09,0.05 0.46,0.27 0.46,0.27 l 0.46,0.35 c 0.46,0.35 0.91,0.69 1.37,1.04 0.04,0.04 0.09,0.07 0.14,0.11 0.03,0.02 0.07,0.04 0.11,0.05 0.04,0.02 0.08,0.03 0.13,0.04 0.04,0 0.08,0.01 0.12,0.01 0.02,0 0.04,0 0.07,0 0,0 0.01,0 0.01,0 0.05,-0.01 0.1,-0.02 0.15,-0.03 0.05,-0.02 0.09,-0.04 0.13,-0.06 0.03,-0.02 0.06,-0.04 0.08,-0.06 0,0 0.01,-0.01 0.01,-0.01 l 0.13,-0.14 4.17,-4.61 0.27,-0.31 c 0.04,-0.08 0.06,-0.16 0.07,-0.24 0,0 0,-0.01 0,-0.02 0,-0.01 0,-0.03 0,-0.04 -0.03,-0.14 -0.03,-0.18 -0.04,-0.2 z m -39.65,-8.19 -1.35,-2.24 1.33,-0.11 1.04,2.33 z m 0.31,-4.02 0.39,-1.53 4.13,-0.76 c 0,0 0,0 0.01,0 0.02,-0.01 0.04,-0.01 0.07,-0.02 0.02,-0.01 0.04,-0.01 0.07,-0.01 0.03,0 0.05,-0.01 0.08,-0.01 h 0.01 c 0.19,0 0.37,0.09 0.48,0.22 0.03,0.03 0.05,0.06 0.07,0.09 0.02,0.03 0.03,0.05 0.04,0.08 v 0.01 c 0.01,0.01 0.01,0.02 0.01,0.03 0,0 0,0 0,0.01 l 1.76,2.84 c 0,0 0,0.01 0.01,0.02 l 0.12,0.2 c 0,0 0,0 0,0 0.12,0.13 0.3,0.22 0.5,0.22 h 0.01 l 0.25,-0.05 c 0,0 0,0 0,0 l 1.41,-0.31 c 0,0 0,0 0.01,0 l 0.15,-0.03 h 0.03 c 0.15,0 0.27,0.07 0.36,0.16 0.01,0.01 0.01,0.02 0.02,0.03 l 0.09,0.2 c 0,0 0,0.01 0,0.01 l 0.06,0.13 c 0,0 0,0 0.01,0.01 l 0.11,0.22 c 0,0 0,0.01 0,0.01 v 0 c 0.01,0.03 0.01,0.05 0.01,0.08 0,0.14 -0.06,0.27 -0.15,0.35 -0.04,0.04 -0.09,0.08 -0.15,0.1 v 0 c 0,0 -0.01,0 -0.01,0 -0.01,0 -0.02,0.01 -0.03,0.01 l -2.59,1.58 -2.43,2.84 c -0.02,0.02 -0.04,0.04 -0.06,0.06 0,0.01 -0.01,0.01 -0.02,0.02 -0.04,0.04 -0.09,0.08 -0.15,0.1 v 0 c 0,0 -0.01,0 -0.01,0 -0.01,0 -0.02,0.01 -0.03,0.01 -0.04,0.02 -0.09,0.03 -0.15,0.03 h -0.01 c -0.07,0 -0.13,-0.01 -0.19,-0.04 -0.04,-0.01 -0.07,-0.03 -0.1,-0.05 l -0.67,-0.35 c 0,0 -0.01,0 -0.02,0 -0.04,-0.01 -0.07,-0.03 -0.1,-0.05 0,0 -0.01,0 -0.01,-0.01 -0.02,-0.02 -0.04,-0.04 -0.06,-0.06 0,0 0,0 0,0 -0.01,-0.01 -0.02,-0.03 -0.04,-0.04 -0.01,-0.02 -0.03,-0.04 -0.04,-0.07 -0.01,-0.01 -0.01,-0.03 -0.02,-0.04 0,0 0,-0.01 0,-0.01 -0.02,-0.05 -0.03,-0.11 -0.03,-0.17 0,-0.02 0,-0.04 0,-0.05 l 0.03,-0.12 v -0.01 c 0,0 0,-0.01 0.01,-0.01 l 0.24,-0.58 0.06,-0.15 c 0,-0.03 0.01,-0.06 0.01,-0.09 0,-0.03 0,-0.05 -0.01,-0.07 v 0 c 0,0 0,-0.01 0,-0.01 0,-0.02 -0.01,-0.04 -0.01,-0.06 0,0 0,0 0,-0.01 0,-0.01 0,-0.01 -0.01,-0.02 -0.01,-0.02 -0.02,-0.04 -0.03,-0.05 -0.01,-0.01 -0.01,-0.03 -0.02,-0.03 0,0 -0.01,-0.01 -0.01,-0.02 0,-0.01 0,0 -0.01,-0.01 -0.08,-0.08 -0.19,-0.14 -0.31,-0.14 h -0.03 c -0.01,0 -0.02,0 -0.04,0 -0.02,0 -0.03,0 -0.05,0 -0.01,0 -0.03,0.01 -0.04,0.01 0,0 0,0 0,0 0,0 0,0 -0.01,0 -0.07,0.02 -0.12,0.06 -0.16,0.11 l -0.1,0.19 -0.26,0.52 z m 33.93,15.11 c -0.31,-0.23 -0.62,-0.46 -0.93,-0.69 -0.6,-0.28 -1.21,-1.01 -1.81,-1.3 0,0 -0.01,0 -0.02,-0.01 -0.04,-0.02 -0.09,-0.04 -0.13,-0.07 0,0 -0.01,0 -0.01,0 -0.04,-0.01 -0.08,-0.02 -0.12,-0.03 -0.04,0 -0.08,-0.01 -0.12,-0.01 -0.05,0 -0.1,0 -0.14,0.01 -0.06,0.01 -0.12,0.03 -0.17,0.06 l -0.12,0.07 -2.05,2.16 c -0.03,0.03 -0.06,0.06 -0.08,0.09 -0.06,0.07 -0.12,0.13 -0.18,0.19 -0.24,0.31 -0.39,0.69 -0.39,1.11 0,0.23 0.05,0.46 0.15,0.67 0.04,0.12 0.16,0.27 0.23,0.37 l 0.93,0.87 c 0,0 0.27,0.25 0.27,0.25 0.06,0.06 0.15,0.13 0.15,0.13 0.62,0.55 1.23,1.11 1.84,1.66 l -3.87,3.38 -0.27,0.24 c -0.11,0.11 -0.17,0.26 -0.17,0.42 0,0.08 0.02,0.15 0.05,0.23 0.01,0.04 0.03,0.08 0.05,0.11 l 0.16,0.33 c 0.01,0.04 0.03,0.08 0.05,0.11 0.11,0.16 0.29,0.26 0.49,0.26 0.02,0 0.05,0 0.07,-0.01 l 0.15,-0.04 c 0,0 0.01,0 0.01,0 l 1.64,-0.41 c 0.02,-0.01 0.04,-0.02 0.07,-0.02 0.01,0 0.02,0 0.03,0 0.02,0 0.03,0 0.04,0 0,0 0,0 0,0 0.01,0 0.02,0 0.02,0.01 0.06,0.02 0.11,0.05 0.13,0.1 0,0 0,0 0,0 l 0.03,0.08 c 0,0 0.01,0.01 0,0.02 v 0.02 l 0.42,1.1 c 0,0 0,0 0,0 l 0.03,0.08 c 0,0 0,0.01 0,0.02 0,0 0,0.01 0,0.02 v 0 c 0,0.1 -0.06,0.18 -0.14,0.22 0,0 0,0 -0.01,0 0,0 0,0 0,0 l -0.07,0.01 v 0 l -3.79,1.05 c -0.32,0.07 -0.56,0.35 -0.56,0.69 0,0.05 0,0.09 0.01,0.14 0,0 0,0.01 0,0.01 l 0.26,1.07 v 0.04 c 0,0.01 0,0.02 0.01,0.03 0.06,0.23 0.22,0.4 0.43,0.48 0.04,0.02 0.08,0.03 0.13,0.04 1.24,0.36 2.47,0.72 3.7,1.08 0.04,0.01 0.09,0.02 0.13,0.04 0.21,0.08 0.38,0.26 0.43,0.48 0,0 0.01,0.01 0.01,0.02 0,0.02 0.01,0.05 0.01,0.08 0,0.03 0,0.06 0,0.08 0.02,0.21 0.04,0.41 0.05,0.62 0.03,0.32 0.05,0.63 0.08,0.95 0.01,0.05 0.02,0.11 0.02,0.16 0,0.01 0,0.03 0,0.04 0,0.01 0,0.01 0,0.02 -0.02,0.28 -0.21,0.52 -0.47,0.61 -0.04,0.02 -0.1,0.03 -0.15,0.03 0,0 -0.01,0 -0.01,0 -0.21,0.04 -0.4,0.09 -0.57,0.12 -0.12,0.03 -0.22,0.05 -0.31,0.07 -0.37,0.08 -0.58,0.13 -0.58,0.13 l -0.16,0.04 -0.11,0.02 c -0.22,0.06 -0.38,0.24 -0.43,0.46 0,0.01 0,0.02 0,0.03 l -0.5,2.36 2.57,6.18 c 0,0 0,0 0,0 l 0.08,0.19 c 0.11,0.18 0.3,0.29 0.52,0.29 0.02,0 0.04,0 0.06,0 l 0.21,-0.06 1.92,-0.54 1.46,2.74 1.76,0.22 c 0.26,0.05 0.46,0.27 0.48,0.54 0.01,0.02 0.01,0.04 0.01,0.06 0,0.02 0,0.05 -0.01,0.07 l -0.03,5.66 v 0.01 c 0.02,0.04 0.02,0.08 0.02,0.13 0,0.04 0,0.06 -0.01,0.08 0,0.01 0,0.02 0,0.02 0,0.02 0,0.04 -0.01,0.05 -0.02,0.09 -0.06,0.16 -0.11,0.23 -0.05,0.08 -0.14,0.15 -0.23,0.19 0,0 0,0.01 -0.01,0.01 -0.02,0.01 -0.06,0.02 -0.08,0.03 0,0 0,0 -0.01,0 -0.01,0 -0.03,0.01 -0.04,0.01 0,0 -0.01,0 -0.02,0 -0.01,0 -0.02,0.01 -0.03,0 -0.01,0 -0.02,0 -0.04,0 h -0.01 c -0.02,0.01 -0.02,0.01 -0.04,0.01 h -0.04 c -0.01,0 -0.01,0 -0.02,0 l -5.66,1.29 c -1.2,1.54 -2.4,3.09 -3.6,4.63 -0.03,0.04 -0.07,0.08 -0.12,0.1 0,0 0,0 0,0 -0.01,0 -0.03,0.01 -0.05,0.02 0,0 -0.01,0 -0.02,0 0,0 0,0 -0.01,0 -0.01,0 -0.02,0 -0.03,0 v 0 c -0.01,0 -0.01,0 -0.02,0 h -0.02 c 0,0 0,0 -0.01,0 -1.43,0 -2.13,0 -2.13,0 v 0 c -1.29,-0.01 -2.59,-0.03 -3.89,-0.04 h -0.01 c 0,0 0,0 -0.01,0 -0.05,0 -0.11,-0.02 -0.15,-0.05 -0.02,-0.01 -0.04,-0.03 -0.06,-0.04 -0.01,-0.01 -0.02,-0.02 -0.03,-0.03 0,0 -0.01,-0.01 -0.01,-0.01 l -1.76,-2.16 v 0 c 0,0 0,0 0,-0.01 l -0.11,-0.14 c -0.04,-0.02 -0.07,-0.04 -0.12,-0.05 -0.02,0 -0.04,-0.01 -0.06,-0.01 h -0.02 c 0,0 0,0 -0.01,0 0,0 -0.01,0 -0.02,0 l -0.13,0.03 c 0,0 0,0 0,0 l -1.24,0.28 c 0,0 0,0 0,0 -0.01,0 -0.03,0.01 -0.05,0.02 0,0 -0.01,0 -0.02,0 0,0 0,0 -0.01,0 -0.01,0 -0.02,0 -0.03,0 v 0 c -0.01,0 -0.02,0 -0.03,0 h -0.01 c 0,0 0,0 -0.01,0 -0.05,0 -0.11,-0.02 -0.15,-0.05 -0.02,-0.01 -0.04,-0.03 -0.06,-0.04 -0.01,-0.01 -0.02,-0.02 -0.03,-0.03 0,0 -0.01,-0.01 -0.01,-0.01 -0.01,-0.01 -0.02,-0.03 -0.02,-0.04 -0.01,-0.01 -0.01,-0.02 -0.02,-0.03 0,-0.01 0,-0.01 0,-0.02 v 0 l -2.13,-4.03 v 0 c 0,0 0,0 0,-0.01 -0.04,-0.09 -0.12,-0.16 -0.23,-0.19 -0.02,0 -0.04,-0.01 -0.06,-0.01 h -0.02 c 0,0 0,0 -0.01,0 l -1.74,0.01 H 140 c 0,0 -0.01,0 -0.01,0 0,0 -0.01,0 -0.01,0 l -0.08,0.01 v 0 c -0.04,0.01 -0.06,0.03 -0.09,0.05 0,0 0,0 0,0 -0.05,0.04 -0.09,0.1 -0.11,0.17 v 0 c -0.01,0.02 -0.01,0.04 -0.01,0.07 0,0 0,0 0,0.01 v 0.01 l -0.18,1.08 v 0.02 l -0.02,0.15 c 0,0 0,0 0,0 -0.03,0.07 -0.08,0.13 -0.15,0.16 0,0 0,0 0,0 -0.01,0 -0.03,0.01 -0.05,0.02 0,0 -0.01,0 -0.01,0 v 0 c 0,0 0,0 -0.01,0 l -0.18,-0.01 -1.97,-0.15 -1.73,0.44 c 0,0 -0.01,0 -0.02,0 0,0 0,0 -0.01,0 -0.01,0 -0.02,0 -0.03,0 v 0 c -0.01,0 -0.02,0 -0.03,0 -0.06,0 -0.12,-0.02 -0.17,-0.05 -0.02,-0.01 -0.04,-0.03 -0.06,-0.04 -0.01,-0.01 -0.02,-0.02 -0.03,-0.03 0,0 -0.01,-0.01 -0.01,-0.01 -0.01,-0.01 -0.02,-0.03 -0.02,-0.04 -0.01,-0.01 -0.01,-0.02 -0.02,-0.03 l -0.7,-1.46 c 0,0 -0.01,-0.01 -0.01,-0.01 -0.01,-0.01 -0.02,-0.03 -0.02,-0.04 -0.01,-0.01 -0.01,-0.02 -0.02,-0.03 -0.01,-0.01 -0.01,-0.03 -0.01,-0.04 0,-0.01 0,-0.03 0,-0.04 0,-0.01 0,-0.02 0,-0.04 0,-0.03 0,-0.05 0.01,-0.08 0.02,-0.07 0.06,-0.13 0.11,-0.17 0,0 0,0 0,0 0.03,-0.02 0.05,-0.04 0.09,-0.05 v 0 c 0.02,-0.01 0.05,-0.01 0.08,-0.01 l 2.22,-0.46 0.15,-0.03 c 0,0 0,0 0,0 0.09,-0.04 0.16,-0.13 0.18,-0.24 0,0 0,0 0,-0.01 l -0.01,-0.15 v 0 l -0.04,-0.42 c 0,-0.02 0,-0.04 -0.01,-0.07 0,-0.01 0,-0.03 -0.01,-0.04 v 0 c -0.04,-0.1 -0.12,-0.17 -0.23,-0.2 -0.02,0 -0.05,-0.01 -0.07,-0.01 v 0 c -1.38,-0.13 -2.75,-0.26 -4.13,-0.39 h -0.01 c 0,0 0,0 -0.01,0 -0.05,0 -0.11,-0.02 -0.15,-0.05 -0.02,-0.01 -0.04,-0.03 -0.06,-0.04 -0.01,-0.01 -0.02,-0.02 -0.03,-0.03 0,0 -0.01,-0.01 -0.01,-0.01 -0.01,-0.01 -0.02,-0.03 -0.02,-0.04 -0.01,-0.01 -0.01,-0.02 -0.02,-0.03 0,-0.01 0,-0.01 -0.01,-0.02 0,0 0,0 0,-0.01 0,0 0,0 0,-0.01 0,-0.01 0,-0.03 0,-0.04 0,-0.01 0,-0.02 0,-0.04 v 0 c -0.16,-1.02 -0.28,-1.73 -0.34,-2.08 0,-0.02 0,-0.04 -0.01,-0.05 -0.03,-0.12 -0.12,-0.21 -0.24,-0.24 -0.02,0 -0.04,-0.01 -0.07,-0.01 v 0 c -0.27,-0.04 -0.53,-0.07 -0.8,-0.11 -0.02,0 -0.05,-0.01 -0.07,-0.01 v 0 c -0.04,0 -0.08,0 -0.11,0.02 -0.04,0.01 -0.07,0.03 -0.09,0.05 0,0 0,0 0,0 -0.05,0.04 -0.09,0.1 -0.11,0.17 -0.01,0.03 -0.01,0.05 -0.01,0.08 -0.06,0.38 -0.14,0.93 -0.14,0.93 l -1.9,-0.1 c -0.28,-0.01 -0.56,-0.02 -0.84,-0.03 v 0 c -0.06,0 -0.12,0 -0.18,-0.01 -0.05,0 -0.11,0 -0.15,0.01 h -0.01 l -0.23,0.06 c -0.11,0.03 -0.21,0.08 -0.31,0.14 -0.03,0.01 -0.07,0.04 -0.1,0.06 -0.08,0.06 -0.15,0.13 -0.22,0.2 -0.05,0.07 -0.1,0.13 -0.15,0.21 -0.61,0.81 -1.55,2.07 -1.69,2.27 -0.16,0.24 -2.95,0.63 -4.05,0.77 -0.06,0.03 -0.12,0.04 -0.19,0.04 -0.01,0 -0.02,0 -0.03,0 -0.06,0 -0.12,-0.01 -0.18,-0.04 -0.07,-0.02 -0.12,-0.05 -0.17,-0.1 -0.01,0 -0.02,-0.01 -0.03,-0.02 -0.01,-0.01 -0.03,-0.02 -0.04,-0.04 -0.04,-0.04 -0.06,-0.07 -0.08,-0.11 0,0 -0.01,-0.01 -0.01,-0.02 l -0.38,-0.43 c -0.01,-0.01 -0.03,-0.02 -0.04,-0.04 -0.04,-0.04 -0.06,-0.07 -0.08,-0.11 -0.06,-0.09 -0.09,-0.2 -0.09,-0.32 0,-0.2 0.1,-0.39 0.25,-0.5 0.01,-0.01 0.03,-0.02 0.04,-0.03 0.04,-0.03 0.08,-0.05 0.13,-0.06 0.04,-0.01 0.07,-0.02 0.1,-0.03 v 0 l 1.86,-0.34 1.8,-0.31 0.04,-0.01 c 0.15,-0.03 0.25,-0.16 0.25,-0.31 0,-0.03 0,-0.05 -0.01,-0.08 v 0 l -0.85,-2.06 c 0,-0.03 0,-0.05 -0.01,-0.08 v 0 c -0.04,-0.14 -0.16,-0.25 -0.31,-0.25 -0.02,0 -0.04,0 -0.06,0 l -0.7,0.1 v 0 c -0.04,0 -0.08,0 -0.11,0.02 -0.04,0.01 -0.07,0.03 -0.09,0.05 0,0 0,0 0,0 -0.05,0.04 -0.09,0.1 -0.11,0.17 -0.01,0.03 -0.01,0.05 -0.01,0.08 0,0.01 0,0.02 0,0.04 0,0.03 0.01,0.05 0.02,0.08 0,0.01 0.01,0.02 0.02,0.03 0,0.02 0.01,0.03 0.02,0.04 0,0 0,0.01 0.01,0.01 l 0.41,0.91 -2.24,0.61 -1.23,-0.48 -1.53,0.61 -0.74,-0.48 c -0.09,-0.03 -0.18,-0.08 -0.24,-0.15 -0.11,-0.11 -0.17,-0.26 -0.17,-0.43 0,-0.2 0.1,-0.39 0.25,-0.5 0.01,-0.01 0.03,-0.02 0.04,-0.03 l 1.47,-0.99 c 0,0 0.01,0 0.01,0 l 0.09,-0.06 c 0,0 0,0 0,0 0.07,-0.07 0.12,-0.16 0.12,-0.27 0,-0.01 0,-0.03 0,-0.04 l -0.04,-0.15 -0.51,-1.66 -0.04,-0.15 c -0.06,-0.11 -0.17,-0.18 -0.3,-0.18 l -0.16,0.03 -1.07,0.18 -0.96,0.16 v 0.1 c 0,-0.01 0,-0.02 0,-0.04 0,-0.02 0,-0.04 0.01,-0.07 l -0.13,0.02 v 0 l -0.1,0.02 c -0.03,0.01 -0.07,0.02 -0.11,0.02 v 0 c -0.19,0 -0.35,-0.15 -0.36,-0.34 0,-0.01 0,-0.02 0,-0.04 0,-0.03 0,-0.05 0.01,-0.08 0,0 0,0 0,-0.01 l 0.02,-0.36 c 0,-0.01 0,-0.01 0,-0.02 0,-0.03 0,-0.05 0,-0.07 v -0.02 c 0,-0.06 0,-0.12 0.02,-0.17 0.04,-0.24 0.17,-0.45 0.36,-0.58 0,0 0,0 0,0 0.04,-0.02 0.07,-0.04 0.11,-0.06 l 0.1,-0.03 1.16,-0.53 2.3,-1.06 0.14,-0.24 v 0 c 0,-0.01 0,-0.02 0,-0.04 v 0 l -0.06,-0.57 c 0,-0.01 0,-0.02 0,-0.04 v -0.03 c 0,-0.01 0,-0.02 0,-0.03 v 0 c 0,-0.11 0.06,-0.2 0.15,-0.24 l 0.04,-0.01 c 0.03,-0.02 0.06,-0.03 0.1,-0.03 l 1.47,-0.49 c 0.03,-0.02 0.07,-0.04 0.11,-0.04 0.01,0 0.02,0 0.03,0 0.08,0 0.15,0.03 0.19,0.08 l 0.08,0.1 c 0,0 0,0 0,0 0,0.01 0.01,0.02 0.01,0.03 0,0.01 0.01,0.03 0.01,0.04 l 0.08,0.36 c 0.02,0.12 0.12,0.22 0.25,0.23 0.01,0 0.02,0 0.03,0 0.03,0 0.05,0 0.08,-0.01 l 2.05,-0.45 0.18,-0.04 c 0.08,-0.05 0.14,-0.14 0.14,-0.25 0,-0.04 -0.01,-0.08 -0.02,-0.11 0,0 0,0 0,0 l -0.08,-0.1 -0.14,-0.2 8.42,-4.9 3.26,-0.42 2.62,-3.57 c 0.05,-0.37 0.1,-0.73 0.15,-1.1 0.11,-0.79 0.21,-1.58 0.32,-2.37 l 0.15,-1.13 c 0.39,-0.15 0.78,-0.3 1.17,-0.44 0.04,-0.01 0.08,-0.03 0.12,-0.04 0.4,-0.15 0.8,-0.3 1.2,-0.46 l 0.03,-0.01 c 0.04,-0.01 0.09,-0.03 0.13,-0.05 0,0 0,0 0.01,0 0.01,-0.01 0.03,-0.02 0.04,-0.03 0.02,-0.01 0.03,-0.03 0.04,-0.04 v 0 c 0,0 0,-0.01 0,-0.01 0.01,-0.01 0.02,-0.03 0.03,-0.04 v 0 c 0,0 0,0 0,-0.01 0.01,0 0.01,-0.01 0.01,-0.02 0,0 0,0 0,-0.01 0.01,-0.01 0.01,-0.03 0.02,-0.04 0,-0.02 0.01,-0.03 0.01,-0.04 0,0 0,-0.01 0,-0.02 0,0 0,0 0,-0.01 0,-0.02 0,-0.04 0,-0.06 v 0 l -0.07,-0.19 -0.24,-0.72 c 0,-0.02 -0.01,-0.04 -0.02,-0.06 -0.02,-0.04 -0.04,-0.08 -0.07,-0.12 l -0.02,-0.02 c -0.01,0 -0.01,-0.01 -0.02,-0.02 -0.01,-0.01 -0.02,-0.02 -0.03,-0.03 v 0 c -0.01,-0.01 -0.02,-0.01 -0.03,-0.02 0,0 0,0 0,0 0,0 -0.01,0 -0.01,0 -0.05,-0.03 -0.1,-0.04 -0.15,-0.04 0,0 -0.01,0 -0.02,0 v 0 l -1.85,-0.2 -0.49,-2.49 1.69,-0.84 0.04,-0.02 c 0,0 0,0 0.01,0 0.01,-0.01 0.03,-0.02 0.04,-0.03 0.02,-0.01 0.03,-0.03 0.04,-0.04 v 0 c 0,0 0,-0.01 0,-0.01 0.01,-0.01 0.02,-0.03 0.03,-0.04 v 0 c 0,0 0,0 0,-0.01 0.01,0 0.01,-0.01 0.01,-0.02 0,0 0,0 0,-0.01 0.01,-0.01 0.01,-0.03 0.02,-0.04 0,-0.02 0.01,-0.03 0.01,-0.04 0,0 0,-0.01 0,-0.02 0,0 0,0 0,-0.01 0.01,-0.1 -0.01,-0.2 -0.08,-0.29 l -0.02,-0.02 c -0.01,0 -0.01,-0.01 -0.02,-0.02 -0.01,-0.01 -0.02,-0.02 -0.03,-0.03 v 0 c -0.01,-0.01 -0.02,-0.01 -0.03,-0.02 0,0 0,0 0,0 0,0 -0.01,0 -0.01,0 -0.05,-0.03 -0.11,-0.04 -0.17,-0.05 -0.04,0 -0.08,0.01 -0.12,0.02 v 0 c 0,0 0,0 0,0 h -0.01 l -0.69,0.25 -1.37,-4.52 0.95,-0.41 c 0.01,0 0.03,-0.01 0.03,-0.01 v 0 l 0.02,-0.01 v 0 c 0.07,-0.03 0.13,-0.07 0.19,-0.12 0.01,-0.01 0.02,-0.02 0.03,-0.04 l 0.08,-0.08 0.09,-0.22 c 0,-0.05 0.01,-0.09 0.01,-0.14 0,-0.04 0,-0.07 -0.01,-0.11 v 0 c 0,-0.01 0,-0.01 -0.01,-0.02 0,-0.03 -0.01,-0.06 -0.02,-0.09 v 0 c 0,0 0,0 -0.01,-0.01 0,-0.01 0,-0.02 -0.01,-0.03 0,0 0,-0.01 -0.01,-0.01 -0.01,-0.02 -0.02,-0.04 -0.04,-0.07 -0.01,-0.02 -0.02,-0.04 -0.04,-0.05 0,0 -0.01,-0.02 -0.02,-0.03 -0.01,0 -0.01,0 -0.01,-0.01 -0.12,-0.12 -0.28,-0.2 -0.47,-0.21 h -0.04 c -0.02,0.01 -0.03,0.01 -0.05,0.01 -0.03,0 -0.04,0 -0.07,0 h -0.01 l -5.69,1.23 -1.05,1.81 c -0.25,0.35 -0.5,0.7 -0.75,1.05 0,0 0,0.01 -0.01,0.01 -0.04,0.06 -0.08,0.12 -0.13,0.18 -0.16,0.19 -0.41,0.3 -0.67,0.3 -0.23,0 -0.42,-0.08 -0.58,-0.21 l -0.56,-0.43 v 0.01 l -1.12,-0.86 -0.17,-0.13 c -0.17,-0.16 -0.28,-0.39 -0.28,-0.65 0,-0.16 0.04,-0.31 0.12,-0.45 0.03,-0.04 0.05,-0.09 0.09,-0.13 l 0.01,-0.01 c 0.04,-0.06 0.16,-0.18 0.23,-0.23 l 0.36,-0.31 0.31,-0.26 c 0.14,-0.11 0.27,-0.22 0.41,-0.32 1.12,-0.91 1.25,-1.17 2.37,-2.07 l 2.06,-2 0.96,-1.51 2.93,-3.58 2.14,0.08 1.5,-1.4 0.19,-0.18 c 0,-0.01 0.01,-0.02 0.02,-0.02 0.02,-0.02 0.04,-0.04 0.07,-0.06 0.08,-0.06 0.16,-0.1 0.25,-0.13 0.07,-0.02 0.14,-0.03 0.21,-0.03 0.05,0 0.09,0 0.14,0.02 0.05,0 0.09,0.02 0.14,0.04 0.01,0 0.01,0 0.02,0.01 h 0.01 l 0.39,0.18 0.72,0.33 c 0,0 0.01,0 0.02,0 0.08,0.03 0.16,0.05 0.26,0.05 0.39,0 0.7,-0.31 0.7,-0.7 0,-0.13 -0.04,-0.25 -0.1,-0.35 0,-0.02 -0.01,-0.03 -0.02,-0.04 0,-0.01 -0.01,-0.03 -0.02,-0.04 -0.04,-0.04 -0.08,-0.09 -0.12,-0.14 -0.09,-0.11 -0.17,-0.19 -0.17,-0.19 0,0 0.91,-0.21 2.54,-0.59 l 0.85,0.96 0.1,0.11 c 0,0 0,0 0.01,0.01 0.01,0.01 0.03,0.02 0.04,0.03 v 0 c 0.04,0.02 0.09,0.04 0.15,0.04 0.02,0.01 0.04,0.01 0.05,0.01 0,0 0.01,0 0.02,0 0.01,0 0.02,0 0.02,0 l 0.07,-0.02 0.04,-0.01 c 0,0 0,0 0,0 l 3.69,-1.23 2.34,-0.32 3.48,2.78 c 0.14,0.09 0.3,0.14 0.48,0.14 0.17,0 0.33,-0.05 0.46,-0.13 0.01,-0.01 0.02,-0.01 0.03,-0.02 l 0.37,-0.24 2.12,1.93 c 0.03,0.02 0.05,0.04 0.07,0.06 0.09,0.09 0.15,0.22 0.15,0.36 0,0.17 -0.08,0.32 -0.22,0.41 0,0.01 -0.01,0.01 -0.02,0.01 -0.02,0.01 -0.04,0.03 -0.07,0.04 l -0.27,0.16 c -0.04,0.02 -0.08,0.04 -0.11,0.07 -0.12,0.09 -0.2,0.23 -0.2,0.4 0,0.12 0.04,0.23 0.12,0.31 l 0.09,0.09 c 0,0.01 0.01,0.01 0.02,0.02 l 0.92,0.93 0.97,2.47 c 0.04,0.09 0.09,0.17 0.15,0.23 0.04,0.04 0.09,0.07 0.14,0.11 0.03,0.02 0.07,0.04 0.11,0.05 0.04,0.02 0.08,0.03 0.13,0.04 0.04,0 0.08,0.01 0.12,0.01 0.02,0 0.04,0 0.07,0 l 1,-0.08 c 0.02,0.01 0.04,0.03 0.07,0.04 l 1.27,0.74 c -0.13,-0.03 -0.88,0.81 -2.25,2.36 z"
   id="path188"
   style="fill:#000000" />
	</g>
</g></g></g><style
     type="text/css"
     id="style2">
	.st0{fill:#3C5DAA;}
	.st1{fill:#D7DF23;}
	.st2{fill:#F8982D;}
	.st3{fill:#ADAC0E;}
	.st4{fill:#3D8ECD;}
	.st5{fill:#7958A5;}
	.st6{fill:#A92844;}
	.st7{fill:#EF3E31;}
</style></svg>
